<?xml version="1.0" encoding="utf-8"?>
<!-- Generator: Adobe Illustrator 16.0.0, SVG Export Plug-In . SVG Version: 6.00 Build 0)  -->
<!DOCTYPE svg PUBLIC "-//W3C//DTD SVG 1.1//EN" "http://www.w3.org/Graphics/SVG/1.1/DTD/svg11.dtd">
<svg version="1.1" id="Capa_1" xmlns="http://www.w3.org/2000/svg" xmlns:xlink="http://www.w3.org/1999/xlink" x="0px" y="0px"
	 width="36px" height="36px" viewBox="0 0 36 36" enable-background="new 0 0 36 36" xml:space="preserve">
<g>
	<path fill="#FFFFFF" d="M5.757,16.624l1.369,5.116h2.025l2.551-7.952H9.623l-1.511,5.208l-1.331-5.208H4.754l-1.375,5.208
		l-1.49-5.208h-2.041L2.36,21.74h2.05L5.757,16.624z M5.757,16.624"/>
	<path fill="#FFFFFF" d="M18.697,13.788H16.67l-1.37,5.208l-1.495-5.208h-2.041l2.521,7.952h2.041l1.348-5.116l1.376,5.116h2.02
		l2.558-7.952h-2.071l-1.526,5.208L18.697,13.788z M18.697,13.788"/>
	<g>
		<path fill="#FFFFFF" d="M33.47,13.788l-1.526,5.208l-1.324-5.208h-2.034l-1.368,5.208l-1.489-5.208h-2.049l2.521,7.952h2.05
			l1.339-5.116l1.376,5.116h2.026l2.551-7.952H33.47z M33.47,13.788"/>
		<path fill="#FFFFFF" d="M17.693,2.538c-6.148,0-11.435,3.638-13.866,8.864h27.733C29.131,6.176,23.843,2.538,17.693,2.538
			L17.693,2.538z M17.693,2.538"/>
	</g>
	<path fill="#FFFFFF" d="M17.693,33.152c6.149,0,11.431-3.625,13.867-8.855H3.827C6.267,29.527,11.545,33.152,17.693,33.152
		L17.693,33.152z M17.693,33.152"/>
</g>
</svg>
