<?xml version="1.0" encoding="utf-8"?>
<!-- Generator: Adobe Illustrator 16.0.0, SVG Export Plug-In . SVG Version: 6.00 Build 0)  -->
<!DOCTYPE svg PUBLIC "-//W3C//DTD SVG 1.1//EN" "http://www.w3.org/Graphics/SVG/1.1/DTD/svg11.dtd">
<svg version="1.1" id="Capa_1" xmlns="http://www.w3.org/2000/svg" xmlns:xlink="http://www.w3.org/1999/xlink" x="0px" y="0px"
	 width="36px" height="36px" viewBox="0 0 36 36" enable-background="new 0 0 36 36" xml:space="preserve">
<g>
	<path fill="#FFFFFF" d="M35.807,27.829c-0.101-0.304-0.744-0.754-1.93-1.346c-0.322-0.186-0.778-0.44-1.371-0.761
		c-0.594-0.323-1.131-0.62-1.613-0.891s-0.937-0.533-1.359-0.787c-0.067-0.051-0.279-0.198-0.636-0.445
		c-0.354-0.245-0.655-0.426-0.9-0.544c-0.245-0.12-0.487-0.179-0.726-0.179c-0.337,0-0.761,0.24-1.27,0.723
		c-0.507,0.483-0.973,1.009-1.396,1.576c-0.423,0.568-0.872,1.092-1.346,1.574c-0.476,0.484-0.865,0.726-1.169,0.726
		c-0.152,0-0.344-0.043-0.572-0.127c-0.228-0.085-0.402-0.156-0.521-0.217c-0.117-0.059-0.321-0.178-0.609-0.355
		c-0.287-0.178-0.448-0.276-0.482-0.293c-2.32-1.286-4.311-2.761-5.97-4.42c-1.66-1.66-3.134-3.649-4.42-5.97
		c-0.017-0.035-0.114-0.195-0.292-0.482C9.045,15.323,8.926,15.119,8.867,15c-0.06-0.119-0.131-0.292-0.216-0.521
		c-0.084-0.229-0.126-0.419-0.126-0.571c0-0.304,0.242-0.694,0.725-1.169c0.483-0.474,1.008-0.923,1.575-1.346
		c0.568-0.423,1.091-0.89,1.574-1.396c0.484-0.508,0.725-0.932,0.725-1.271c0-0.236-0.06-0.478-0.178-0.723
		c-0.119-0.247-0.3-0.547-0.547-0.903c-0.245-0.355-0.393-0.566-0.444-0.635c-0.253-0.424-0.516-0.876-0.787-1.358
		s-0.567-1.021-0.89-1.614C9.956,2.901,9.701,2.442,9.516,2.121C8.922,0.937,8.474,0.293,8.168,0.19
		C8.05,0.141,7.873,0.114,7.635,0.114c-0.457,0-1.054,0.085-1.791,0.255C5.108,0.538,4.527,0.716,4.104,0.902
		c-0.848,0.356-1.745,1.388-2.693,3.1C0.547,5.593,0.115,7.168,0.115,8.726c0,0.457,0.029,0.901,0.088,1.334
		c0.059,0.432,0.166,0.919,0.318,1.462c0.153,0.542,0.276,0.944,0.369,1.206c0.093,0.262,0.267,0.732,0.521,1.41
		c0.254,0.678,0.406,1.092,0.457,1.246c0.594,1.66,1.295,3.141,2.109,4.445c1.337,2.167,3.163,4.408,5.475,6.72
		c2.311,2.311,4.551,4.137,6.719,5.475c1.303,0.813,2.787,1.517,4.446,2.108c0.152,0.052,0.568,0.203,1.246,0.457
		c0.676,0.255,1.146,0.429,1.408,0.521c0.263,0.095,0.665,0.217,1.207,0.37s1.029,0.258,1.462,0.317
		c0.431,0.06,0.875,0.09,1.332,0.09c1.56,0,3.134-0.433,4.727-1.296c1.71-0.948,2.744-1.847,3.098-2.693
		c0.188-0.423,0.364-1.003,0.535-1.74c0.169-0.737,0.254-1.334,0.254-1.79C35.885,28.128,35.859,27.949,35.807,27.829L35.807,27.829
		z M35.807,27.829"/>
</g>
</svg>
