<?xml version="1.0" encoding="utf-8"?>
<!-- Generator: Adobe Illustrator 16.0.0, SVG Export Plug-In . SVG Version: 6.00 Build 0)  -->
<!DOCTYPE svg PUBLIC "-//W3C//DTD SVG 1.1//EN" "http://www.w3.org/Graphics/SVG/1.1/DTD/svg11.dtd">
<svg version="1.1" id="Capa_1" xmlns="http://www.w3.org/2000/svg" xmlns:xlink="http://www.w3.org/1999/xlink" x="0px" y="0px"
	 width="36px" height="36px" viewBox="0 0 36 36" enable-background="new 0 0 36 36" xml:space="preserve">
<g>
	<path fill="#FFFFFF" d="M18.008,23.142l-4.453-3.899L0.838,30.14c0.462,0.439,1.079,0.702,1.77,0.702h30.787
		c0.688,0,1.304-0.263,1.768-0.702L22.445,19.242L18.008,23.142z M18.008,23.142"/>
	<path fill="#FFFFFF" d="M35.162,5.86c-0.452-0.439-1.079-0.702-1.768-0.702H2.608c-0.679,0-1.308,0.263-1.77,0.702l17.17,14.71
		L35.162,5.86z M35.162,5.86"/>
	<path fill="#FFFFFF" d="M0.022,7.416v21.332l12.416-10.55L0.022,7.416z M0.022,7.416"/>
	<path fill="#FFFFFF" d="M23.563,18.197l12.415,10.55V7.403L23.563,18.197z M23.563,18.197"/>
</g>
</svg>
