<?xml version="1.0" encoding="utf-8"?>
<!-- Generator: Adobe Illustrator 16.0.0, SVG Export Plug-In . SVG Version: 6.00 Build 0)  -->
<!DOCTYPE svg PUBLIC "-//W3C//DTD SVG 1.1//EN" "http://www.w3.org/Graphics/SVG/1.1/DTD/svg11.dtd">
<svg version="1.1" id="Capa_1" xmlns="http://www.w3.org/2000/svg" xmlns:xlink="http://www.w3.org/1999/xlink" x="0px" y="0px"
	 width="36px" height="36px" viewBox="0 0 36 36" enable-background="new 0 0 36 36" xml:space="preserve">
<g>
	<path fill="#FFFFFF" d="M10.924,27.686c0-0.332-0.01-0.608-0.029-0.826c-0.02-0.222-0.067-0.456-0.146-0.71
		c-0.077-0.249-0.187-0.448-0.33-0.595c-0.143-0.146-0.345-0.269-0.607-0.364c-0.263-0.098-0.579-0.146-0.95-0.146
		c-0.787,0-1.509,0.421-2.166,1.264v-1.205H5.156v0.58h0.833v4.771H5.156v0.58h2.373v-0.58H6.695v-3.405
		c0.247-0.394,0.579-0.725,0.997-0.989c0.416-0.269,0.806-0.399,1.169-0.399c0.571,0,0.94,0.169,1.106,0.509
		s0.249,0.944,0.249,1.818v2.467H9.383v0.58h2.316v-0.58h-0.775V27.686z"/>
	<path fill="#FFFFFF" d="M15.719,25.044c-0.819,0-1.5,0.291-2.044,0.875c-0.545,0.584-0.817,1.299-0.817,2.149
		c0,0.871,0.288,1.594,0.863,2.167c0.575,0.57,1.287,0.855,2.137,0.855c0.533,0,1.018-0.131,1.454-0.395
		c0.436-0.263,0.788-0.613,1.06-1.053l-0.533-0.312c-0.494,0.779-1.154,1.169-1.98,1.169c-0.641,0-1.178-0.216-1.61-0.649
		c-0.433-0.432-0.66-0.987-0.683-1.667h4.957c0.008-0.101,0.012-0.174,0.012-0.221c0-0.934-0.255-1.654-0.765-2.161
		C17.259,25.298,16.575,25.044,15.719,25.044z M13.599,27.606c0.085-0.58,0.323-1.053,0.713-1.421c0.39-0.366,0.858-0.55,1.407-0.55
		c0.578,0,1.062,0.178,1.448,0.533c0.385,0.354,0.605,0.833,0.659,1.438H13.599z"/>
	<path fill="#FFFFFF" d="M21.233,26.308v-1.205h-1.541v0.58h0.833v4.771h-0.833v0.58h2.372v-0.58h-0.831v-3.405
		c0.246-0.387,0.574-0.709,0.981-0.967c0.411-0.259,0.858-0.389,1.345-0.389c0.078,0,0.186,0.008,0.324,0.024v0.845h0.58v-1.46
		c-0.248-0.047-0.507-0.067-0.777-0.067C22.744,25.035,21.928,25.459,21.233,26.308z"/>
	<path fill="#FFFFFF" d="M31.551,30.454v-8.386h-1.539v0.58h0.833v3.684c-0.471-0.858-1.224-1.288-2.258-1.288
		c-0.834,0-1.536,0.299-2.108,0.894c-0.571,0.596-0.856,1.303-0.856,2.131c0,0.824,0.285,1.536,0.856,2.131
		c0.572,0.595,1.274,0.892,2.108,0.892c1.034,0,1.787-0.428,2.258-1.286v1.229h1.528v-0.58H31.551z M30.181,29.776
		c-0.445,0.483-0.977,0.725-1.594,0.725c-0.618,0-1.149-0.241-1.593-0.725c-0.444-0.482-0.666-1.053-0.666-1.708
		c0-0.657,0.222-1.226,0.666-1.708c0.443-0.482,0.975-0.725,1.593-0.725c0.617,0,1.148,0.242,1.594,0.725
		c0.442,0.482,0.664,1.051,0.664,1.708C30.845,28.724,30.623,29.294,30.181,29.776z"/>
	<path fill="#FFFFFF" d="M6.865,35.104c-0.078,0.006-0.132,0.012-0.16,0.012c-0.127,0-0.212-0.045-0.253-0.132
		c-0.04-0.086-0.061-0.257-0.061-0.513v-1.567h0.537v-0.267H6.392v-0.686H6.067v0.686h-0.42v0.267h0.42v1.6
		c0,0.344,0.037,0.58,0.111,0.704c0.075,0.126,0.208,0.189,0.399,0.189c0.066,0,0.162-0.01,0.287-0.026l0.111-0.015l-0.021-0.263
		L6.865,35.104z"/>
	<path fill="#FFFFFF" d="M14.373,32.611c-0.375,0-0.688,0.134-0.938,0.4c-0.25,0.269-0.375,0.597-0.375,0.987
		c0,0.399,0.132,0.732,0.396,0.993c0.265,0.263,0.592,0.394,0.981,0.394c0.244,0,0.467-0.06,0.668-0.18
		c0.199-0.12,0.362-0.281,0.486-0.482l-0.245-0.145c-0.227,0.358-0.53,0.537-0.909,0.537c-0.294,0-0.541-0.1-0.739-0.299
		c-0.198-0.197-0.303-0.454-0.314-0.766h2.277c0.003-0.045,0.005-0.079,0.005-0.1c0-0.43-0.117-0.761-0.352-0.991
		C15.081,32.728,14.768,32.611,14.373,32.611z M13.4,33.787c0.039-0.269,0.148-0.482,0.327-0.651
		c0.18-0.169,0.395-0.254,0.646-0.254c0.267,0,0.487,0.081,0.666,0.244c0.177,0.163,0.277,0.383,0.303,0.661H13.4z"/>
	<path fill="#FFFFFF" d="M23.047,35.116c-0.295,0-0.547-0.107-0.761-0.319c-0.212-0.212-0.319-0.479-0.319-0.798
		c0-0.321,0.107-0.586,0.319-0.798c0.214-0.212,0.466-0.319,0.761-0.319c0.267,0,0.521,0.1,0.766,0.299l0.177-0.22
		c-0.271-0.233-0.584-0.35-0.942-0.35c-0.393,0-0.725,0.132-0.997,0.395c-0.271,0.265-0.405,0.595-0.405,0.993
		c0,0.397,0.135,0.729,0.405,0.991c0.272,0.265,0.604,0.396,0.997,0.396c0.379,0,0.708-0.141,0.983-0.424l-0.18-0.197
		C23.609,34.998,23.342,35.116,23.047,35.116z"/>
	<path fill="#FFFFFF" d="M31.142,33.77c-0.252-0.041-0.443-0.098-0.572-0.167c-0.13-0.069-0.193-0.167-0.193-0.295
		c0-0.131,0.062-0.238,0.186-0.318c0.124-0.083,0.267-0.124,0.43-0.124c0.234,0,0.458,0.028,0.67,0.086v0.458h0.267v-0.67
		c-0.302-0.086-0.609-0.128-0.925-0.128c-0.265,0-0.492,0.064-0.676,0.191c-0.185,0.128-0.276,0.297-0.276,0.511
		c0,0.22,0.077,0.385,0.232,0.498c0.158,0.11,0.393,0.191,0.704,0.24c0.237,0.035,0.431,0.1,0.578,0.189
		c0.148,0.09,0.224,0.199,0.224,0.326c0,0.368-0.293,0.554-0.882,0.554c-0.231,0-0.441-0.033-0.633-0.101v-0.462H30.01v0.668
		c0.272,0.105,0.574,0.159,0.906,0.159c0.175,0,0.327-0.009,0.456-0.029c0.13-0.024,0.254-0.061,0.374-0.116
		c0.118-0.055,0.208-0.138,0.272-0.25c0.063-0.111,0.096-0.248,0.096-0.411C32.114,34.147,31.789,33.877,31.142,33.77z"/>
	<path fill="#FFFFFF" d="M5.879,5.901c-0.262,3.809,0.17,7.694,0.596,10.352H5.9c-0.268,0-0.484,0.217-0.484,0.485
		c0,0.267,0.217,0.484,0.484,0.484h0.732l0.358,3.764c0.014,0.736,0.617,1.331,1.356,1.331h6.038c0.74,0,1.343-0.595,1.357-1.331
		l0.359-3.764h3.916l0.358,3.764c0.014,0.736,0.616,1.331,1.355,1.331h6.039c0.738,0,1.343-0.595,1.355-1.331l0.358-3.751
		c0.002-0.004,0.002-0.009,0.004-0.013h0.647c0.269,0,0.484-0.217,0.484-0.484c0-0.268-0.216-0.485-0.484-0.485h-0.432
		c0.806-3.739,1.553-8.627,0.389-10.163c-0.64-0.843-2.023-0.556-3.556-1.21c-1.533-0.654-10.26-4.496-16.123-4.267
		C4.552,0.842,3.627,1.992,3.627,1.992s2.159,0.541,3.265,1.47l-2.05,0.041C4.842,3.503,5.948,4.904,5.879,5.901z M14.776,20.914
		l-0.002,0.045c0,0.214-0.174,0.389-0.389,0.389H8.348c-0.214,0-0.387-0.175-0.387-0.389L7.354,14.6
		c0.01-0.205,0.181-0.368,0.388-0.368h7.25c0.207,0,0.377,0.163,0.387,0.368L14.776,20.914z M28.158,20.959
		c0,0.214-0.173,0.389-0.387,0.389h-6.039c-0.214,0-0.387-0.175-0.387-0.389L20.74,14.6c0.009-0.205,0.18-0.368,0.386-0.368h7.25
		c0.209,0,0.38,0.163,0.387,0.368l-0.601,6.314L28.158,20.959z M28.628,9.81c0.358,0.154,0.441,1.721,0.403,3.628
		c-0.195-0.109-0.415-0.175-0.655-0.175h-7.25c-0.747,0-1.355,0.608-1.355,1.355l0.156,1.635h-3.732l0.152-1.588l0.002-0.047
		c0-0.748-0.607-1.355-1.356-1.355h-7.25c-0.175,0-0.34,0.035-0.493,0.094c0.166-1.518,0.457-3.128,0.95-4.604
		C8.199,8.752,23.985,7.819,28.628,9.81z"/>
	<circle fill="#FFFFFF" cx="11.341" cy="19.284" r="0.998"/>
	<circle fill="#FFFFFF" cx="24.777" cy="19.284" r="0.998"/>
	<path fill="#FFFFFF" d="M12.297,11.444c0.648,0,1.256,0.239,1.627,0.638l0.399-0.37c-0.473-0.509-1.229-0.812-2.026-0.812
		c-0.824,0-1.597,0.32-2.067,0.859l0.41,0.357C11.008,11.694,11.627,11.444,12.297,11.444z"/>
	<path fill="#FFFFFF" d="M24.366,11.444c0.647,0,1.256,0.239,1.626,0.638l0.399-0.37c-0.471-0.509-1.229-0.812-2.025-0.812
		c-0.826,0-1.6,0.32-2.068,0.859l0.409,0.357C23.077,11.694,23.696,11.444,24.366,11.444z"/>
</g>
</svg>
